<?xml version="1.0" encoding="UTF-8" standalone="no"?>
<!DOCTYPE svg PUBLIC "-//W3C//DTD SVG 1.1//EN"
 "http://www.w3.org/Graphics/SVG/1.1/DTD/svg11.dtd">
<!-- Generated by graphviz version 2.40.1 (20161225.0304)
 -->
<!-- Title: dependencies Pages: 1 -->
<svg width="1094pt" height="284pt"
 viewBox="0.00 0.00 1094.00 284.00" xmlns="http://www.w3.org/2000/svg" xmlns:xlink="http://www.w3.org/1999/xlink">
<g id="graph0" class="graph" transform="scale(1 1) rotate(0) translate(4 280)">
<title>dependencies</title>
<polygon fill="#ffffff" stroke="transparent" points="-4,4 -4,-280 1090,-280 1090,4 -4,4"/>
<text text-anchor="start" x="522.0091" y="-42.4" font-family="sans-serif" font-weight="bold" font-size="14.00" fill="#000000">Legend</text>
<polygon fill="#ffffb3" stroke="transparent" points="309,-10 309,-30 329,-30 329,-10 309,-10"/>
<text text-anchor="start" x="332.629" y="-15.4" font-family="sans-serif" font-size="14.00" fill="#000000"> &#160;Declarations</text>
<polygon fill="#8dd3c7" stroke="transparent" points="422,-10 422,-30 442,-30 442,-10 422,-10"/>
<text text-anchor="start" x="445.7251" y="-15.4" font-family="sans-serif" font-size="14.00" fill="#000000"> &#160;Module</text>
<polygon fill="#80b1d3" stroke="transparent" points="508,-10 508,-30 528,-30 528,-10 508,-10"/>
<text text-anchor="start" x="531.7812" y="-15.4" font-family="sans-serif" font-size="14.00" fill="#000000"> &#160;Bootstrap</text>
<polygon fill="#fdb462" stroke="transparent" points="605,-10 605,-30 625,-30 625,-10 605,-10"/>
<text text-anchor="start" x="628.6732" y="-15.4" font-family="sans-serif" font-size="14.00" fill="#000000"> &#160;Providers</text>
<polygon fill="#fb8072" stroke="transparent" points="701,-10 701,-30 721,-30 721,-10 701,-10"/>
<text text-anchor="start" x="724.7258" y="-15.4" font-family="sans-serif" font-size="14.00" fill="#000000"> &#160;Exports</text>
<g id="clust1" class="cluster">
<title>cluster_AppModule</title>
<polygon fill="none" stroke="#000000" stroke-dasharray="1,5" points="8,-70 8,-268 1078,-268 1078,-70 8,-70"/>
</g>
<g id="clust2" class="cluster">
<title>cluster_AppModule_declarations</title>
<polygon fill="none" stroke="#000000" points="277,-78 277,-130 1070,-130 1070,-78 277,-78"/>
</g>
<g id="clust8" class="cluster">
<title>cluster_AppModule_imports</title>
<polygon fill="none" stroke="#000000" points="16,-78 16,-130 269,-130 269,-78 16,-78"/>
</g>
<g id="clust10" class="cluster">
<title>cluster_AppModule_bootstrap</title>
<polygon fill="none" stroke="#000000" points="486,-208 486,-260 610,-260 610,-208 486,-208"/>
</g>
<!-- AppComponent -->
<g id="node1" class="node">
<title>AppComponent</title>
<polygon fill="#ffffb3" stroke="#000000" points="1061.9399,-122 956.0601,-122 956.0601,-86 1061.9399,-86 1061.9399,-122"/>
<text text-anchor="middle" x="1009" y="-99.8" font-family="Times,serif" font-size="14.00" fill="#000000">AppComponent</text>
</g>
<!-- AppModule -->
<g id="node6" class="node">
<title>AppModule</title>
<polygon fill="#8dd3c7" stroke="#000000" points="589.6571,-187 586.6571,-191 565.6571,-191 562.6571,-187 506.3429,-187 506.3429,-151 589.6571,-151 589.6571,-187"/>
<text text-anchor="middle" x="548" y="-164.8" font-family="Times,serif" font-size="14.00" fill="#000000">AppModule</text>
</g>
<!-- AppComponent&#45;&gt;AppModule -->
<g id="edge1" class="edge">
<title>AppComponent&#45;&gt;AppModule</title>
<path fill="none" stroke="#000000" d="M1009,-122.2921C1009,-144.2057 1009,-178 1009,-178 1009,-178 599.7237,-178 599.7237,-178"/>
<polygon fill="#000000" stroke="#000000" points="599.7238,-174.5001 589.7237,-178 599.7237,-181.5001 599.7238,-174.5001"/>
</g>
<!-- ModalLoginPage -->
<g id="node2" class="node">
<title>ModalLoginPage</title>
<polygon fill="#ffffb3" stroke="#000000" points="938.705,-122 825.295,-122 825.295,-86 938.705,-86 938.705,-122"/>
<text text-anchor="middle" x="882" y="-99.8" font-family="Times,serif" font-size="14.00" fill="#000000">ModalLoginPage</text>
</g>
<!-- ModalLoginPage&#45;&gt;AppModule -->
<g id="edge2" class="edge">
<title>ModalLoginPage&#45;&gt;AppModule</title>
<path fill="none" stroke="#000000" d="M882,-122.1061C882,-141.3391 882,-169 882,-169 882,-169 599.9631,-169 599.9631,-169"/>
<polygon fill="#000000" stroke="#000000" points="599.9632,-165.5001 589.9631,-169 599.9631,-172.5001 599.9632,-165.5001"/>
</g>
<!-- ModalRankingComponent -->
<g id="node3" class="node">
<title>ModalRankingComponent</title>
<polygon fill="#ffffb3" stroke="#000000" points="807.8243,-122 642.1757,-122 642.1757,-86 807.8243,-86 807.8243,-122"/>
<text text-anchor="middle" x="725" y="-99.8" font-family="Times,serif" font-size="14.00" fill="#000000">ModalRankingComponent</text>
</g>
<!-- ModalRankingComponent&#45;&gt;AppModule -->
<g id="edge3" class="edge">
<title>ModalRankingComponent&#45;&gt;AppModule</title>
<path fill="none" stroke="#000000" d="M725,-122.027C725,-138.3976 725,-160 725,-160 725,-160 599.9465,-160 599.9465,-160"/>
<polygon fill="#000000" stroke="#000000" points="599.9466,-156.5001 589.9465,-160 599.9465,-163.5001 599.9466,-156.5001"/>
</g>
<!-- PopoverFotoComponent -->
<g id="node4" class="node">
<title>PopoverFotoComponent</title>
<polygon fill="#ffffb3" stroke="#000000" points="624.6638,-122 471.3362,-122 471.3362,-86 624.6638,-86 624.6638,-122"/>
<text text-anchor="middle" x="548" y="-99.8" font-family="Times,serif" font-size="14.00" fill="#000000">PopoverFotoComponent</text>
</g>
<!-- PopoverFotoComponent&#45;&gt;AppModule -->
<g id="edge4" class="edge">
<title>PopoverFotoComponent&#45;&gt;AppModule</title>
<path fill="none" stroke="#000000" d="M548,-122.1061C548,-122.1061 548,-140.991 548,-140.991"/>
<polygon fill="#000000" stroke="#000000" points="544.5001,-140.9909 548,-150.991 551.5001,-140.991 544.5001,-140.9909"/>
</g>
<!-- PopoverLogoutComponent -->
<g id="node5" class="node">
<title>PopoverLogoutComponent</title>
<polygon fill="#ffffb3" stroke="#000000" points="453.434,-122 284.566,-122 284.566,-86 453.434,-86 453.434,-122"/>
<text text-anchor="middle" x="369" y="-99.8" font-family="Times,serif" font-size="14.00" fill="#000000">PopoverLogoutComponent</text>
</g>
<!-- PopoverLogoutComponent&#45;&gt;AppModule -->
<g id="edge5" class="edge">
<title>PopoverLogoutComponent&#45;&gt;AppModule</title>
<path fill="none" stroke="#000000" d="M369,-122.027C369,-138.3976 369,-160 369,-160 369,-160 496.0325,-160 496.0325,-160"/>
<polygon fill="#000000" stroke="#000000" points="496.0325,-163.5001 506.0325,-160 496.0324,-156.5001 496.0325,-163.5001"/>
</g>
<!-- AppComponent  -->
<g id="node9" class="node">
<title>AppComponent </title>
<polygon fill="#80b1d3" stroke="#000000" points="602.439,-252 493.561,-252 493.561,-216 602.439,-216 602.439,-252"/>
<text text-anchor="middle" x="548" y="-229.8" font-family="Times,serif" font-size="14.00" fill="#000000">AppComponent </text>
</g>
<!-- AppModule&#45;&gt;AppComponent  -->
<g id="edge8" class="edge">
<title>AppModule&#45;&gt;AppComponent </title>
<path fill="none" stroke="#000000" stroke-dasharray="1,5" d="M548,-187.1061C548,-187.1061 548,-205.991 548,-205.991"/>
<polygon fill="#000000" stroke="#000000" points="544.5001,-205.9909 548,-215.991 551.5001,-205.991 544.5001,-205.9909"/>
</g>
<!-- AppRoutingModule -->
<g id="node7" class="node">
<title>AppRoutingModule</title>
<polygon fill="#8dd3c7" stroke="#000000" points="261.2744,-122 258.2744,-126 237.2744,-126 234.2744,-122 132.7256,-122 132.7256,-86 261.2744,-86 261.2744,-122"/>
<text text-anchor="middle" x="197" y="-99.8" font-family="Times,serif" font-size="14.00" fill="#000000">AppRoutingModule</text>
</g>
<!-- AppRoutingModule&#45;&gt;AppModule -->
<g id="edge6" class="edge">
<title>AppRoutingModule&#45;&gt;AppModule</title>
<path fill="none" stroke="#000000" d="M197,-122.1061C197,-141.3391 197,-169 197,-169 197,-169 496.0098,-169 496.0098,-169"/>
<polygon fill="#000000" stroke="#000000" points="496.0099,-172.5001 506.0098,-169 496.0098,-165.5001 496.0099,-172.5001"/>
</g>
<!-- ToastModule -->
<g id="node8" class="node">
<title>ToastModule</title>
<polygon fill="#8dd3c7" stroke="#000000" points="114.1529,-122 111.1529,-126 90.1529,-126 87.1529,-122 23.8471,-122 23.8471,-86 114.1529,-86 114.1529,-122"/>
<text text-anchor="middle" x="69" y="-99.8" font-family="Times,serif" font-size="14.00" fill="#000000">ToastModule</text>
</g>
<!-- ToastModule&#45;&gt;AppModule -->
<g id="edge7" class="edge">
<title>ToastModule&#45;&gt;AppModule</title>
<path fill="none" stroke="#000000" d="M69,-122.2921C69,-144.2057 69,-178 69,-178 69,-178 496.3298,-178 496.3298,-178"/>
<polygon fill="#000000" stroke="#000000" points="496.3299,-181.5001 506.3298,-178 496.3298,-174.5001 496.3299,-181.5001"/>
</g>
</g>
</svg>
