<?xml version="1.0" encoding="UTF-8" standalone="no"?>
<!DOCTYPE svg PUBLIC "-//W3C//DTD SVG 1.1//EN"
 "http://www.w3.org/Graphics/SVG/1.1/DTD/svg11.dtd">
<!-- Generated by graphviz version 2.40.1 (20161225.0304)
 -->
<!-- Title: dependencies Pages: 1 -->
<svg width="504pt" height="211pt"
 viewBox="0.00 0.00 504.00 211.00" xmlns="http://www.w3.org/2000/svg" xmlns:xlink="http://www.w3.org/1999/xlink">
<g id="graph0" class="graph" transform="scale(1 1) rotate(0) translate(4 207)">
<title>dependencies</title>
<polygon fill="#ffffff" stroke="transparent" points="-4,4 -4,-207 500,-207 500,4 -4,4"/>
<text text-anchor="start" x="227.0091" y="-42.4" font-family="sans-serif" font-weight="bold" font-size="14.00" fill="#000000">Legend</text>
<polygon fill="#ffffb3" stroke="transparent" points="14,-10 14,-30 34,-30 34,-10 14,-10"/>
<text text-anchor="start" x="37.629" y="-15.4" font-family="sans-serif" font-size="14.00" fill="#000000"> &#160;Declarations</text>
<polygon fill="#8dd3c7" stroke="transparent" points="127,-10 127,-30 147,-30 147,-10 127,-10"/>
<text text-anchor="start" x="150.7251" y="-15.4" font-family="sans-serif" font-size="14.00" fill="#000000"> &#160;Module</text>
<polygon fill="#80b1d3" stroke="transparent" points="213,-10 213,-30 233,-30 233,-10 213,-10"/>
<text text-anchor="start" x="236.7812" y="-15.4" font-family="sans-serif" font-size="14.00" fill="#000000"> &#160;Bootstrap</text>
<polygon fill="#fdb462" stroke="transparent" points="310,-10 310,-30 330,-30 330,-10 310,-10"/>
<text text-anchor="start" x="333.6732" y="-15.4" font-family="sans-serif" font-size="14.00" fill="#000000"> &#160;Providers</text>
<polygon fill="#fb8072" stroke="transparent" points="406,-10 406,-30 426,-30 426,-10 406,-10"/>
<text text-anchor="start" x="429.7258" y="-15.4" font-family="sans-serif" font-size="14.00" fill="#000000"> &#160;Exports</text>
<g id="clust1" class="cluster">
<title>cluster_ModalDiaPageModule</title>
<polygon fill="none" stroke="#000000" stroke-dasharray="1,5" points="116,-70 116,-195 380,-195 380,-70 116,-70"/>
</g>
<g id="clust2" class="cluster">
<title>cluster_ModalDiaPageModule_declarations</title>
<polygon fill="none" stroke="#000000" points="124,-78 124,-130 372,-130 372,-78 124,-78"/>
</g>
<!-- ModalDiaPage -->
<g id="node1" class="node">
<title>ModalDiaPage</title>
<polygon fill="#ffffb3" stroke="#000000" points="363.9734,-122 264.0266,-122 264.0266,-86 363.9734,-86 363.9734,-122"/>
<text text-anchor="middle" x="314" y="-99.8" font-family="Times,serif" font-size="14.00" fill="#000000">ModalDiaPage</text>
</g>
<!-- ModalDiaPageModule -->
<g id="node3" class="node">
<title>ModalDiaPageModule</title>
<polygon fill="#8dd3c7" stroke="#000000" points="319.524,-187 316.524,-191 295.524,-191 292.524,-187 176.476,-187 176.476,-151 319.524,-151 319.524,-187"/>
<text text-anchor="middle" x="248" y="-164.8" font-family="Times,serif" font-size="14.00" fill="#000000">ModalDiaPageModule</text>
</g>
<!-- ModalDiaPage&#45;&gt;ModalDiaPageModule -->
<g id="edge1" class="edge">
<title>ModalDiaPage&#45;&gt;ModalDiaPageModule</title>
<path fill="none" stroke="#000000" d="M291.8875,-122.1061C291.8875,-122.1061 291.8875,-140.991 291.8875,-140.991"/>
<polygon fill="#000000" stroke="#000000" points="288.3875,-140.9909 291.8875,-150.991 295.3875,-140.991 288.3875,-140.9909"/>
</g>
<!-- ModalEditarPage -->
<g id="node2" class="node">
<title>ModalEditarPage</title>
<polygon fill="#ffffb3" stroke="#000000" points="245.9706,-122 132.0294,-122 132.0294,-86 245.9706,-86 245.9706,-122"/>
<text text-anchor="middle" x="189" y="-99.8" font-family="Times,serif" font-size="14.00" fill="#000000">ModalEditarPage</text>
</g>
<!-- ModalEditarPage&#45;&gt;ModalDiaPageModule -->
<g id="edge2" class="edge">
<title>ModalEditarPage&#45;&gt;ModalDiaPageModule</title>
<path fill="none" stroke="#000000" d="M211.1119,-122.1061C211.1119,-122.1061 211.1119,-140.991 211.1119,-140.991"/>
<polygon fill="#000000" stroke="#000000" points="207.6119,-140.9909 211.1119,-150.991 214.6119,-140.991 207.6119,-140.9909"/>
</g>
</g>
</svg>
